<?xml version="1.0" encoding="UTF-8"?>
<svg width="69px" height="62px" viewBox="0 0 69 62" version="1.1" xmlns="http://www.w3.org/2000/svg" xmlns:xlink="http://www.w3.org/1999/xlink">
    <!-- Generator: Sketch 47.1 (45422) - http://www.bohemiancoding.com/sketch -->
    <title>extravio_bagagem</title>
    <desc>Created with Sketch.</desc>
    <defs></defs>
    <g id="Page-1" stroke="none" stroke-width="1" fill="none" fill-rule="evenodd" stroke-linecap="round">
        <g id="Desktop-Seguros-Promo" transform="translate(-295.000000, -3617.000000)" stroke="#64BA00" stroke-width="3">
            <g id="extravio_bagagem" transform="translate(297.000000, 3619.000000)">
                <path d="M21,9.90243902 L21,5.65853659 C21,2.54634578 23.5434826,0 26.6521739,0 L37.9565217,0 C41.0652131,0 43.6086957,2.54634578 43.6086957,5.65853659 L43.6086957,9.90243902" id="Shape"></path>
                <path d="M0,23 L18.5067555,23" id="Shape"></path>
                <path d="M47.4926907,23 L64.5978261,23" id="Shape"></path>
                <path d="M18,23 L21.5326087,23" id="Shape"></path>
                <path d="M25,23 L26.4130435,23" id="Shape"></path>
                <path d="M33,51 L33,49.4188612" id="Shape-Copy-10"></path>
                <path d="M33,23 L47.1304348,23" id="Shape"></path>
                <path d="M21.4942519,4 L43.2434359,4" id="Shape"></path>
                <path d="M59.3478261,58.097561 L5.65217391,58.097561 C2.54348257,58.097561 0,55.5512152 0,52.4390244 L0,15.6585366 C0,12.5463458 2.54348257,10 5.65217391,10 L59.3478261,10 C62.4565174,10 65,12.5463458 65,15.6585366 L65,52.4390244 C65,55.5512152 62.4565174,58.097561 59.3478261,58.097561 Z" id="Shape"></path>
                <path d="M52.5777657,28.3170732 L48.48743,28.3170732 C47.66935,28.3170732 47,27.6841617 47,26.9105768 L47,18.4064963 C47,17.6329115 47.66935,17 48.48743,17 L52.5777657,17 C53.3958458,17 54.0652174,17.6329115 54.0652174,18.4064964 L54.0652174,26.9105768 C54.0652174,27.6841617 53.3958458,28.3170732 52.5777657,28.3170732 Z" id="Shape" fill="#FFFFFF"></path>
                <path d="M16.6521739,28.3170732 L12.4130435,28.3170732 C11.6358653,28.3170732 11,27.6841617 11,26.9105768 L11,18.4064963 C11,17.6329115 11.6358653,17 12.4130435,17 L16.6521739,17 C17.4293521,17 18.0652174,17.6329115 18.0652174,18.4064964 L18.0652174,26.9105768 C18.0652174,27.6841617 17.4293521,28.3170732 16.6521739,28.3170732 Z" id="Shape" fill="#FFFFFF"></path>
                <path d="M33.1139504,45 C33.313198,42.1357121 34.2752145,39.9482121 36,38.4375 C38.5871782,36.1714319 38.2279008,30 33.1139504,30 C29.7046501,30 28,31.25 28,33.75" id="Path-2" stroke-linejoin="round"></path>
            </g>
        </g>
    </g>
</svg>